<?xml version="1.0" encoding="UTF-8"?>
<svg id="Ebene_1" xmlns="http://www.w3.org/2000/svg" version="1.1" viewBox="0 0 40 40" width="1em" height="1em">
  <defs>
    <style>
      .st0 {
        fill: currentColor;
      }
    </style>
  </defs>
  <path class="st0" d="M0,0v40h40V0H0ZM37.66,37.66H2.34V2.34h35.32v35.32ZM15.8,14.19h-2.29l-5.08,13.31h2.66l1.22-3.32h4.65l1.24,3.32h2.66s-5.06-13.31-5.06-13.31ZM12.74,22.36l1.91-5.23,1.84,5.23h-3.75ZM31.51,22.55c0-3.39-2.62-5.04-5.12-5.04-3.5,0-5.19,2.7-5.19,5.14,0,2.72,2.04,5.04,5.17,5.04s4.21-1.82,4.57-2.57l-2.16-.6c-.16.4-.93,1.33-2.33,1.33-2.15,0-2.57-2.07-2.61-2.46h7.59c.02-.1.06-.68.06-.84h.02ZM23.82,21.76c.12-1.44,1.21-2.44,2.53-2.44s2.42.87,2.57,2.44h-5.1Z"/>
</svg>