<?xml version="1.0" encoding="UTF-8"?>
<svg id="Ebene_1" xmlns="http://www.w3.org/2000/svg" version="1.1" viewBox="0 0 12 12" width="1em" height="1em">
  <defs>
    <style>
      .st0 {
        fill: currentColor;
      }
    </style>
  </defs>
  <path class="st0" d="M9,0H3C1.34,0,0,1.34,0,3v6c0,1.66,1.34,3,3,3h6c1.66,0,3-1.34,3-3V3c0-1.66-1.34-3-3-3ZM8.81,7.44l-.58,1.28c-.06.14-.2.18-.32.11l-1.23-.58c-.43-.21-.77-.29-1.06-.29-.33,0-.59.14-.88.59l-.19.29c-.06.09-.1.12-.17.12-.05,0-.1-.02-.17-.06l-1.18-.73c-.11-.07-.15-.12-.15-.19s.02-.11.12-.26l.12-.17c.7-1.07,1.48-1.45,2.39-1.45.78,0,1.32.13,3.17,1.03h0c.15.07.19.16.12.31ZM8.96,4.28l-.11.17c-.7,1.07-1.48,1.45-2.39,1.45-.78,0-1.32-.13-3.17-1.03h0c-.15-.07-.19-.16-.12-.31l.58-1.28c.06-.14.2-.18.32-.11l1.23.58c.43.21.77.29,1.06.29.33,0,.59-.14.88-.59l.19-.29c.06-.09.1-.12.17-.12.05,0,.1.02.17.06l1.18.73c.11.07.15.12.15.19s-.02.11-.12.26Z"/>
</svg>