<?xml version="1.0" encoding="UTF-8"?>
<svg id="Ebene_1" xmlns="http://www.w3.org/2000/svg" xmlns:xlink="http://www.w3.org/1999/xlink" version="1.1" viewBox="0 0 75 75" width="1em" height="1em">
  <defs>
    <style>
      .st0 {
        fill: none;
      }

      .st1 {
        fill: #fff;
      }

      .st2 {
        fill: #currentColor;
      }

      .st3 {
        clip-path: url(#clippath);
      }
    </style>
    <clipPath id="clippath">
      <rect class="st0" x="18.07" y="19.04" width="38.68" height="36.98"/>
    </clipPath>
  </defs>
  <path class="st2" d="M0,18.75C0,8.39,8.39,0,18.75,0h37.5c10.36,0,18.75,8.39,18.75,18.75v37.5c0,10.36-8.39,18.75-18.75,18.75H18.75c-10.36,0-18.75-8.39-18.75-18.75V18.75Z"/>
  <g class="st3">
    <path class="st1" d="M54.28,44.58c-11.57-5.6-14.95-6.43-19.83-6.43-5.72,0-10.6,2.38-14.95,9.07l-.72,1.09c-.59.9-.72,1.22-.72,1.61s.2.71.91,1.16l7.35,4.57c.39.26.72.39,1.04.39.39,0,.65-.19,1.04-.77l1.17-1.8c1.82-2.77,3.44-3.67,5.53-3.67,1.82,0,3.97.51,6.63,1.8l7.67,3.6c.78.39,1.62.19,2.01-.71l3.64-7.98c.39-.9.13-1.48-.78-1.93ZM20.54,30.49c11.57,5.6,14.95,6.43,19.83,6.43,5.72,0,10.6-2.38,14.95-9.07l.71-1.09c.59-.9.72-1.22.72-1.61s-.2-.71-.91-1.16l-7.35-4.57c-.39-.26-.72-.39-1.04-.39-.39,0-.65.19-1.04.77l-1.17,1.8c-1.82,2.77-3.45,3.67-5.53,3.67-1.82,0-3.97-.51-6.63-1.8l-7.67-3.6c-.78-.39-1.63-.19-2.02.71l-3.64,7.98c-.39.9-.13,1.48.78,1.93Z"/>
  </g>
</svg>