<?xml version="1.0" encoding="UTF-8"?>
<svg id="Ebene_1" xmlns="http://www.w3.org/2000/svg" version="1.1" viewBox="0 0 40 40" width="1em" height="1em">
  <!-- Generator: Adobe Illustrator 30.0.0, SVG Export Plug-In . SVG Version: 2.1.1 Build 123)  -->
  <defs>
    <style>
      .st0 {
        fill: currentColor;
      }
    </style>
  </defs>
  <path class="st0" d="M1.88,0h36.24c1.04,0,1.88.84,1.88,1.88v36.24c0,1.04-.84,1.88-1.88,1.88H1.88c-1.04,0-1.88-.84-1.88-1.88V1.88C0,.84.84,0,1.88,0ZM25.11,31.86v3.76c.61.31,1.33.55,2.16.7.83.15,1.71.23,2.63.23s1.75-.09,2.56-.26,1.52-.45,2.13-.85c.61-.39,1.09-.91,1.45-1.55.35-.63.53-1.42.53-2.37,0-.68-.1-1.28-.31-1.79s-.5-.97-.88-1.37c-.39-.4-.84-.75-1.37-1.07s-1.14-.62-1.81-.9c-.49-.21-.94-.4-1.32-.59-.39-.19-.72-.39-1-.58s-.48-.41-.63-.63c-.15-.22-.22-.47-.22-.75,0-.26.07-.49.2-.69s.32-.39.57-.53c.24-.15.54-.27.89-.34.35-.09.74-.12,1.18-.12.31,0,.64.03.99.07.34.04.69.12,1.05.21s.69.22,1.02.37c.33.15.63.32.92.51v-3.52c-.57-.22-1.19-.39-1.87-.49s-1.45-.15-2.32-.15-1.73.09-2.53.29c-.8.19-1.5.49-2.1.9-.61.4-1.08.93-1.43,1.55-.35.63-.52,1.38-.52,2.26,0,1.12.33,2.08.97,2.87s1.62,1.46,2.93,2.01c.51.21,1,.42,1.44.63s.83.41,1.16.63.58.45.76.72c.19.26.28.55.28.88,0,.24-.06.47-.17.68s-.29.39-.53.54-.53.27-.89.36c-.35.09-.77.13-1.24.13-.82,0-1.61-.15-2.41-.43s-1.54-.71-2.21-1.29l-.03-.02ZM18.79,22.5h4.91v-3.1h-13.68v3.1h4.88v13.8h3.89v-13.8h0Z"/>
</svg>