<?xml version="1.0" encoding="UTF-8"?>
<svg id="Ebene_1" xmlns="http://www.w3.org/2000/svg" version="1.1" viewBox="0 0 202 72">
  <!-- Generator: Adobe Illustrator 30.0.0, SVG Export Plug-In . SVG Version: 2.1.1 Build 123)  -->
  <defs>
    <style>
      .st0 {
        fill: #adb5bd;
      }
    </style>
  </defs>
  <path class="st0" d="M18.37,31.61h0c1.27.71,1.71,2.3.99,3.56l-8.47,14.77c-.72,1.26-2.33,1.71-3.6,1h0c-1.27-.71-1.71-2.3-.99-3.56l8.47-14.77c.72-1.26,2.33-1.71,3.6-1Z"/>
  <path class="st0" d="M36.62,20.28h0c1.27.71,1.71,2.3.99,3.56l-8.47,14.77c-.72,1.26-2.33,1.71-3.6,1h0c-1.27-.71-1.71-2.3-.99-3.56l8.47-14.77c.72-1.26,2.33-1.71,3.6-1Z"/>
  <path class="st0" d="M64.71,20.28h0c1.27.71,1.71,2.3.99,3.56l-8.47,14.77c-.72,1.26-2.33,1.71-3.6,1h0c-1.27-.71-1.71-2.3-.99-3.56l8.47-14.77c.72-1.26,2.33-1.71,3.6-1Z"/>
  <path class="st0" d="M46.45,31.61h0c1.27.71,1.71,2.3.99,3.56l-8.47,14.77c-.72,1.26-2.33,1.71-3.6,1h0c-1.27-.71-1.71-2.3-.99-3.56l8.47-14.77c.72-1.26,2.33-1.71,3.6-1Z"/>
  <path class="st0" d="M85.96,49.44c-1.71,0-3.21-.41-4.52-1.24-1.28-.83-2.28-2.01-3-3.56s-1.08-3.37-1.08-5.48.36-3.92,1.08-5.44,1.72-2.69,3-3.52c1.31-.83,2.81-1.24,4.52-1.24,1.55,0,2.91.37,4.08,1.12,1.2.75,2.01,1.72,2.44,2.92h-.44v-9.48c0-1.01.25-1.77.76-2.28.51-.53,1.25-.8,2.24-.8s1.71.27,2.24.8c.53.51.8,1.27.8,2.28v22.76c0,.99-.27,1.75-.8,2.28-.51.53-1.24.8-2.2.8s-1.71-.27-2.24-.8c-.51-.53-.76-1.29-.76-2.28v-2.72l.44,1.56c-.37,1.31-1.17,2.36-2.4,3.16-1.2.77-2.59,1.16-4.16,1.16ZM87.76,44.92c.88,0,1.64-.21,2.28-.64s1.15-1.05,1.52-1.88c.37-.85.56-1.93.56-3.24,0-1.95-.4-3.37-1.2-4.28-.8-.93-1.85-1.4-3.16-1.4-.85,0-1.61.2-2.28.6-.64.4-1.15,1.03-1.52,1.88-.35.83-.52,1.89-.52,3.2,0,1.95.4,3.4,1.2,4.36.8.93,1.84,1.4,3.12,1.4ZM105.85,49.36c-1.01,0-1.79-.27-2.32-.8s-.8-1.29-.8-2.28v-14.2c0-.99.25-1.73.76-2.24.53-.53,1.27-.8,2.2-.8s1.69.27,2.2.8c.51.51.76,1.25.76,2.24v2.08h-.4c.32-1.6,1.03-2.84,2.12-3.72s2.51-1.37,4.24-1.48c.67-.05,1.17.12,1.52.52.37.37.57,1,.6,1.88.05.83-.12,1.48-.52,1.96-.37.48-1.01.77-1.92.88l-.92.08c-1.52.13-2.65.57-3.4,1.32-.72.75-1.08,1.83-1.08,3.24v7.44c0,.99-.27,1.75-.8,2.28-.51.53-1.25.8-2.24.8ZM122.26,49.32c-.99,0-1.75-.28-2.28-.84-.51-.59-.76-1.4-.76-2.44v-13.68c0-1.07.25-1.88.76-2.44.53-.59,1.29-.88,2.28-.88s1.69.29,2.2.88c.53.56.8,1.37.8,2.44v13.68c0,1.04-.25,1.85-.76,2.44-.51.56-1.25.84-2.24.84ZM122.26,25.76c-1.12,0-1.99-.25-2.6-.76-.59-.53-.88-1.28-.88-2.24s.29-1.73.88-2.24c.61-.53,1.48-.8,2.6-.8s1.97.27,2.56.8c.59.51.88,1.25.88,2.24s-.29,1.71-.88,2.24c-.59.51-1.44.76-2.56.76ZM131.6,49c-.59,0-1.08-.15-1.48-.44-.4-.32-.67-.72-.8-1.2-.13-.48-.13-1,0-1.56.16-.56.47-1.08.92-1.56l9.8-11.76v1.4h-8.68c-.72,0-1.28-.2-1.68-.6-.4-.4-.6-.95-.6-1.64,0-.75.2-1.31.6-1.68.4-.4.96-.6,1.68-.6h11.56c.72,0,1.29.16,1.72.48.43.32.71.72.84,1.2.16.45.17.96.04,1.52-.11.53-.39,1.04-.84,1.52l-10.04,12v-1.56h9.28c1.52,0,2.28.75,2.28,2.24,0,.72-.2,1.28-.6,1.68-.4.37-.96.56-1.68.56h-12.32,0ZM150.82,49c-.59,0-1.08-.15-1.48-.44-.4-.32-.67-.72-.8-1.2-.13-.48-.13-1,0-1.56.16-.56.47-1.08.92-1.56l9.8-11.76v1.4h-8.68c-.72,0-1.28-.2-1.68-.6-.4-.4-.6-.95-.6-1.64,0-.75.2-1.31.6-1.68.4-.4.96-.6,1.68-.6h11.56c.72,0,1.29.16,1.72.48.43.32.71.72.84,1.2.16.45.17.96.04,1.52-.11.53-.39,1.04-.84,1.52l-10.04,12v-1.56h9.28c1.52,0,2.28.75,2.28,2.24,0,.72-.2,1.28-.6,1.68-.4.37-.96.56-1.68.56h-12.32ZM175.44,49.44c-2.37,0-4.15-.65-5.32-1.96-1.17-1.33-1.76-3.31-1.76-5.92v-18.04c0-1.01.25-1.77.76-2.28.53-.53,1.29-.8,2.28-.8s1.69.27,2.2.8c.53.51.8,1.27.8,2.28v17.8c0,1.09.23,1.91.68,2.44.48.51,1.11.76,1.88.76.21,0,.41-.01.6-.04.2-.03.4-.04.6-.04.43-.05.72.08.88.4.19.29.28.89.28,1.8,0,.8-.16,1.41-.48,1.84-.32.4-.81.67-1.48.8-.27.03-.57.05-.92.08-.35.05-.68.08-1,.08h0ZM191.68,49.44c-2.32,0-4.32-.41-6-1.24-1.65-.85-2.93-2.04-3.84-3.56-.88-1.55-1.32-3.36-1.32-5.44s.43-3.8,1.28-5.32c.82-1.51,2.06-2.76,3.56-3.6,1.55-.88,3.29-1.32,5.24-1.32,1.41,0,2.69.24,3.84.72,1.12.44,2.13,1.12,2.96,2,.83.85,1.45,1.91,1.88,3.16.43,1.23.64,2.6.64,4.12,0,.51-.16.89-.48,1.16-.32.24-.79.36-1.4.36h-12.56v-3.12h10.08l-.64.56c0-1.09-.16-2-.48-2.72-.32-.75-.79-1.31-1.4-1.68-.59-.37-1.32-.56-2.2-.56-.99,0-1.83.23-2.52.68-.69.45-1.23,1.11-1.6,1.96s-.56,1.88-.56,3.08v.32c0,2.03.47,3.52,1.4,4.48.96.96,2.37,1.44,4.24,1.44.64,0,1.37-.08,2.2-.24s1.6-.41,2.32-.76c.61-.29,1.16-.39,1.64-.28.48.08.85.29,1.12.64s.41.75.44,1.2c.05.45-.04.91-.28,1.36-.24.43-.64.79-1.2,1.08-.91.51-1.93.88-3.08,1.12-1.12.27-2.21.4-3.28.4h0Z"/>
</svg>