<?xml version="1.0" encoding="UTF-8"?>
<svg id="Ebene_1" xmlns="http://www.w3.org/2000/svg" version="1.1" viewBox="0 0 384 512">
  <!-- Generator: Adobe Illustrator 30.0.0, SVG Export Plug-In . SVG Version: 2.1.1 Build 123)  -->
  <defs>
    <style>
      .st0 {
        fill: #adb5bd;
      }
    </style>
  </defs>
  <path class="st0" d="M14,95.8C14,42.9,56.9,0,109.8,0h164.4c52.9,0,95.8,42.9,95.8,95.8,0,33.5-17.2,63-43.3,80.1,26.1,17.1,43.3,46.6,43.3,80.1,0,52.9-42.9,95.8-95.8,95.8h-2.1c-24.8,0-47.4-9.4-64.4-24.9v88.3c0,53.6-44,96.8-97.4,96.8S14,469.2,14,416.2c0-33.5,17.2-63,43.2-80.1-26-17.1-43.2-46.6-43.2-80.1s17.2-63,43.2-80.1c-26-17.1-43.2-46.6-43.2-80.1ZM176.3,191.6h-66.5c-35.6,0-64.4,28.8-64.4,64.4s28.6,64.2,64,64.4h66.9v-128.8ZM207.7,256c0,35.6,28.8,64.4,64.4,64.4h2.1c35.5,0,64.4-28.8,64.4-64.4s-28.9-64.4-64.4-64.4h-2.1c-35.6,0-64.4,28.8-64.4,64.4ZM109.8,351.8h-.4c-35.4.2-64,29-64,64.4s29.2,64.4,64.9,64.4,66-29.4,66-65.4v-63.4h-66.5ZM109.8,31.4c-35.6,0-64.4,28.8-64.4,64.4s28.8,64.4,64.4,64.4h66.5V31.4h-66.5ZM207.7,160.2h66.5c35.5,0,64.4-28.8,64.4-64.4s-28.9-64.4-64.4-64.4h-66.5v128.8Z"/>
</svg>