<?xml version="1.0" encoding="UTF-8"?>
<svg id="Ebene_1" xmlns="http://www.w3.org/2000/svg" version="1.1" viewBox="0 0 490.51 238.13">
  <!-- Generator: Adobe Illustrator 30.0.0, SVG Export Plug-In . SVG Version: 2.1.1 Build 123)  -->
  <defs>
    <style>
      .st0 {
        fill: #adb5bd;
      }
    </style>
  </defs>
  <path class="st0" d="M82.58,153.44c15.08,0,26.34-2.78,33.46-8.26,7.05-5.43,11.92-14.83,14.47-27.94,2.38-12.26,1.47-20.82-2.69-25.43-4.26-4.72-13.47-7.11-27.37-7.11h-24.1l-13.36,68.75h19.59ZM3.75,238.13C1.68,238.13,0,236.45,0,234.38c0-.24.02-.48.07-.72L35.48,51.47c.34-1.76,1.89-3.03,3.68-3.03h76.32c23.98,0,41.84,6.51,53.06,19.36,11.28,12.91,14.76,30.96,10.35,53.65-1.79,9.24-4.88,17.83-9.18,25.51-4.3,7.69-9.98,14.81-16.89,21.16-8.27,7.74-17.63,13.35-27.8,16.66-10,3.26-22.85,4.91-38.18,4.91h-30.9l-8.82,45.4c-.34,1.76-1.89,3.03-3.68,3.04H3.75Z"/>
  <path class="st0" d="M269.89,189.69c-1.12,0-2.18-.5-2.89-1.37-.71-.86-1-2-.79-3.1l15.66-80.61c1.49-7.67,1.12-13.17-1.03-15.49-1.32-1.42-5.29-3.81-17.01-3.81h-28.38l-19.69,101.34c-.34,1.76-1.89,3.04-3.68,3.03h-39.38c-2.07,0-3.75-1.67-3.75-3.74,0-.24.02-.48.07-.72L204.43,3.03C204.77,1.27,206.32,0,208.11,0h39.38c2.07,0,3.75,1.68,3.75,3.75,0,.24-.02.48-.07.72l-8.54,43.97h30.53c23.26,0,39.03,4.1,48.21,12.53,9.36,8.61,12.28,22.36,8.68,40.9l-16.48,84.78c-.34,1.76-1.89,3.04-3.68,3.03h-40Z"/>
  <path class="st0" d="M392.35,153.44c15.08,0,26.34-2.78,33.46-8.26,7.05-5.43,11.92-14.83,14.47-27.94,2.38-12.26,1.47-20.82-2.69-25.43-4.26-4.72-13.47-7.11-27.37-7.11h-24.1l-13.36,68.75h19.59ZM313.52,238.13c-2.07,0-3.75-1.68-3.75-3.75,0-.24.02-.48.07-.72l35.41-182.19c.34-1.76,1.89-3.03,3.68-3.03h76.32c23.99,0,41.84,6.51,53.06,19.36,11.28,12.91,14.76,30.96,10.35,53.65-1.8,9.24-4.88,17.83-9.18,25.51-4.3,7.69-9.98,14.81-16.89,21.16-8.27,7.74-17.63,13.35-27.8,16.66-10,3.26-22.85,4.91-38.18,4.91h-30.9l-8.82,45.4c-.34,1.76-1.89,3.04-3.68,3.04h-39.69Z"/>
</svg>