<?xml version="1.0" encoding="UTF-8"?>
<svg id="Ebene_1" xmlns="http://www.w3.org/2000/svg" version="1.1" viewBox="0 0 40 40">
  <!-- Generator: Adobe Illustrator 30.0.0, SVG Export Plug-In . SVG Version: 2.1.1 Build 123)  -->
  <defs>
    <style>
      .st0 {
        fill: #adb5bd;
      }
    </style>
  </defs>
  <path class="st0" d="M0,0v40h40V0H0ZM37.66,37.66H2.34V2.34h35.32v35.32Z"/>
  <path class="st0" d="M16.65,14.19h-5.64v13.31h2.59v-4.46h3.15c2.31,0,4.14-2.01,4.14-4.42,0-2.05-1.65-4.42-4.24-4.42h0ZM16.59,20.77h-3v-4.31h2.89c1.1,0,1.78,1.03,1.78,2.16,0,1.31-.76,2.16-1.67,2.16h0Z"/>
  <path class="st0" d="M26.32,21.61c-.36-.09-1.93-.34-1.93-1.24,0-.72.59-1.11,1.5-1.11,1.24,0,2.35.71,2.85,1.09l1.01-1.52c-.54-.47-1.69-1.35-3.84-1.35s-3.86,1.16-3.86,3.24,2.87,2.56,3.51,2.74c.76.21,2.16.49,2.16,1.33,0,.69-.66,1.09-1.61,1.09-1.47,0-2.85-.87-3.45-1.29l-.94,1.58c.56.49,2.18,1.52,4.44,1.52,1.22,0,3.98-.38,3.98-3.11,0-2.31-3.13-2.79-3.81-2.96h0Z"/>
</svg>