<?xml version="1.0" encoding="UTF-8"?>
<svg id="Ebene_1" xmlns="http://www.w3.org/2000/svg" version="1.1" viewBox="0 0 40 30">
  <!-- Generator: Adobe Illustrator 30.0.0, SVG Export Plug-In . SVG Version: 2.1.1 Build 123)  -->
  <defs>
    <style>
      .st0 {
        fill: #adb5bd;
      }
    </style>
  </defs>
  <path class="st0" d="M18.86,22.68s-.04.07,0,0ZM34.43,17.24c-1.26,0-2.5.29-3.63.84-.37-.74-.75-1.39-.81-1.88-.08-.57-.16-.91-.07-1.58s.48-1.63.48-1.7-.09-.41-.89-.42-1.5.16-1.58.37c-.14.39-.25.79-.33,1.19-.14.73-1.61,3.34-2.44,4.71-.28-.53-.51-1-.56-1.38-.08-.57-.16-.91-.07-1.58s.48-1.63.48-1.7-.09-.41-.89-.42-1.5.16-1.58.37-.17.71-.33,1.19-2.12,4.83-2.63,5.96c-.26.58-.49,1.04-.65,1.35-.02.05-.04.08-.06.11.02-.03.03-.06.03-.05-.14.27-.22.42-.22.42h0c-.11.21-.23.39-.28.39-.04,0-.12-.53.02-1.24.29-1.51.99-3.86.98-3.94,0-.04.13-.45-.46-.67-.57-.21-.78.14-.83.14s-.09.13-.09.13c0,0,.63-2.65-1.21-2.65-1.15,0-2.75,1.26-3.54,2.41-.49.27-1.56.85-2.69,1.47-.43.24-.88.48-1.29.71-.03-.03-.06-.06-.09-.09-2.24-2.39-6.37-4.08-6.19-7.28.06-1.17.47-4.24,7.94-7.96,6.13-3.05,11.02-2.21,11.87-.35,1.21,2.66-2.62,7.6-8.98,8.31-2.42.27-3.7-.67-4.02-1.02-.33-.37-.38-.39-.51-.32-.21.11-.08.44,0,.63.19.49.97,1.37,2.3,1.81,1.17.38,4.01.59,7.45-.74,3.86-1.49,6.87-5.63,5.99-9.1C24.16.14,18.31-1.01,12.79.95c-3.29,1.17-6.85,3.01-9.42,5.4C.33,9.2-.16,11.68.04,12.72c.71,3.68,5.79,6.08,7.82,7.86-.1.06-.19.11-.28.16-1.02.51-4.89,2.53-5.85,4.67-1.09,2.43.18,4.16,1.02,4.4,2.61.73,5.29-.58,6.72-2.73s1.26-4.94.6-6.22c0-.02-.02-.03-.02-.05.26-.16.53-.31.8-.47.52-.31,1.02-.59,1.47-.83-.25.68-.43,1.49-.53,2.66-.11,1.38.46,3.16,1.19,3.86.33.31.72.31.96.31.86,0,1.25-.71,1.68-1.56.53-1.04,1-2.24,1-2.24,0,0-.59,3.26,1.02,3.26.59,0,1.17-.76,1.44-1.14h0s.01-.02.04-.07c.06-.09.09-.15.09-.15v-.02c.24-.41.76-1.34,1.54-2.88,1.01-1.99,1.98-4.47,1.98-4.47.09.55.22,1.08.39,1.61.18.59.54,1.24.84,1.88-.24.33-.38.51-.38.51h0c-.19.26-.4.53-.62.79-.8.95-1.75,2.04-1.88,2.35-.15.37-.11.64.18.86.21.16.59.19.98.16.72-.05,1.23-.23,1.47-.34.45-.16.87-.38,1.26-.66.78-.58,1.26-1.4,1.21-2.49-.02-.6-.22-1.2-.46-1.76.07-.1.14-.21.21-.31,1.24-1.81,2.19-3.79,2.19-3.79.09.55.22,1.08.39,1.61.15.51.44,1.06.71,1.61-1.16.94-1.88,2.04-2.13,2.76-.46,1.33-.1,1.93.58,2.07.31.06.74-.08,1.07-.22.48-.16.94-.39,1.35-.69.78-.58,1.54-1.38,1.49-2.48-.02-.49-.16-.99-.34-1.46.98-.41,2.26-.64,3.88-.45,3.48.41,4.16,2.58,4.03,3.49s-.86,1.41-1.11,1.56-.32.21-.3.32c.03.16.14.16.35.12.29-.05,1.82-.74,1.89-2.42.1-2.13-1.94-4.46-5.56-4.44h0v-.02ZM7.61,26.29c-1.15,1.26-2.76,1.73-3.46,1.33-.74-.43-.45-2.28.97-3.62.86-.81,1.97-1.56,2.71-2.03.17-.1.41-.25.71-.43.05-.03.08-.04.08-.04.06-.04.12-.07.18-.11.52,1.9.02,3.58-1.19,4.89h0ZM16.01,20.58c-.4.98-1.24,3.48-1.76,3.35-.44-.11-.71-2.02-.09-3.89.31-.94.98-2.07,1.37-2.51.63-.71,1.32-.93,1.49-.65.22.37-.76,3.09-1.01,3.7h0ZM22.95,23.89c-.17.09-.33.14-.4.1-.06-.03.07-.15.07-.15,0,0,.87-.93,1.21-1.36.2-.25.43-.54.68-.87v.1c0,1.12-1.08,1.88-1.57,2.18h0ZM28.3,22.67c-.13-.09-.11-.38.31-1.29.16-.36.54-.96,1.19-1.53.07.22.11.45.12.68,0,1.41-1.01,1.93-1.62,2.15h0Z"/>
</svg>